#!OML:ASF G:\JayActor3\Patient Classification 1\Patient 1\Session 5\male.ASF
:FULLY-SPECIFIED
:DEGREES
549
root 23.7034 15.4963 -4.53538 -61.4728 90.9412 -76.0581
lowerback 40.6791 -2.59842 0.458928
upperback 10.3627 -1.8406 -2.52021
thorax -8.12392 -0.213235 -2.26271
lowerneck 0.0365998 -0.120445 2.91646
upperneck -26.3581 1.38762 1.55856
head -8.15773 0.702747 -0.140004
rclavicle 1.90833e-014 2.50469e-014
rhumerus -29.4118 -1.51386 -87.5647
rradius 49.5556
rwrist -4.39398
rhand -21.0851 -11.086
rfingers 7.12502
rthumb 5.2922 -40.9999
lclavicle 1.90833e-014 2.50469e-014
lhumerus -22.3873 4.34625 80.3575
lradius 36.9401
lwrist 18.366
lhand -26.1542 15.3575
lfingers 7.12502
lthumb 0.396832 45.3369
rfemur -58.2327 -2.55911 25.1941
rtibia 80.1516
rfoot -3.9542 -9.49212
rtoes -15.6523
lfemur -67.5845 7.94323 -24.4672
ltibia 63.9584
lfoot 4.0881 -3.14669
ltoes -23.3116
550
root 23.5837 15.4954 -4.52489 -62.4568 90.9877 -76.9081
lowerback 40.7209 -2.5816 0.444866
upperback 10.3636 -1.82315 -2.52424
thorax -8.13471 -0.203648 -2.26674
lowerneck 0.0676205 -0.114274 2.95361
upperneck -26.4004 1.3934 1.51008
head -8.17733 0.706515 -0.163503
rclavicle 1.23246e-014 1.41137e-014
rhumerus -29.4392 -1.60684 -87.467
rradius 49.3563
rwrist -4.2997
rhand -21.1425 -11.0896
rfingers 7.12502
rthumb 5.23679 -41.0049
lclavicle 1.23246e-014 1.41137e-014
lhumerus -22.4234 4.44882 80.3076
lradius 36.9124
lwrist 18.3862
lhand -26.004 15.5604
lfingers 7.12502
lthumb 0.541906 45.5394
rfemur -58.5018 -2.64864 25.1111
rtibia 80.0165
rfoot -3.72312 -9.06125
rtoes -15.7262
lfemur -67.6065 8.21685 -24.3776
ltibia 66.3033
lfoot 3.56847 -2.44609
ltoes -23.4163
551
root 23.4649 15.4951 -4.51554 -62.8238 91.0171 -77.1589
lowerback 40.7331 -2.57356 0.44873
upperback 10.3641 -1.81039 -2.52285
thorax -8.13743 -0.197066 -2.27246
lowerneck 0.0879926 -0.101389 2.9858
upperneck -26.4136 1.40695 1.46727
head -8.185 0.713765 -0.184528
rclavicle 2.78299e-015 -1.0138e-014
rhumerus -29.4419 -1.68302 -87.3775
rradius 49.131
rwrist -4.18067
rhand -21.1888 -11.0874
rfingers 7.12502
rthumb 5.19202 -41.0038
lclavicle 2.78299e-015 -1.0138e-014
lhumerus -22.4604 4.54039 80.2628
lradius 36.8579
lwrist 18.45
lhand -25.9281 15.6645
lfingers 7.12502
lthumb 0.615189 45.6434
rfemur -58.762 -2.74104 25.0382
rtibia 79.8495
rfoot -3.50935 -8.61603
rtoes -15.6679
lfemur -67.5845 8.48316 -24.2379
ltibia 68.6259
lfoot 3.18095 -1.70538
ltoes -23.3515
552
root 23.3467 15.4982 -4.50689 -62.6173 91.0375 -76.8563
lowerback 40.7123 -2.57263 0.46377
upperback 10.3642 -1.80295 -2.5159
thorax -8.13084 -0.193799 -2.27598
lowerneck 0.0996038 -0.0829329 3.02194
upperneck -26.4024 1.42491 1.41823
head -8.18259 0.723104 -0.20839
rclavicle -1.59028e-014 -1.72943e-014
rhumerus -29.4244 -1.75817 -87.2957
rradius 48.8878
rwrist -4.03593
rhand -21.2274 -11.0723
rfingers 7.12502
rthumb 5.15482 -40.9896
lclavicle -1.59028e-014 -1.72943e-014
lhumerus -22.497 4.62057 80.2239
lradius 36.7786
lwrist 18.5238
lhand -25.9154 15.6991
lfingers 7.12502
lthumb 0.62747 45.678
rfemur -58.9929 -2.82472 24.9521
rtibia 79.6308
rfoot -3.31519 -8.13393
rtoes -15.4746
lfemur -67.4948 8.73718 -24.0518
ltibia 70.8823
lfoot 2.90397 -1.02242
ltoes -23.0924
553
root 23.2295 15.5003 -4.49926 -61.6867 91.0506 -75.8485
lowerback 40.6673 -2.58092 0.496243
upperback 10.3588 -1.80139 -2.50363
thorax -8.12348 -0.194226 -2.28053
lowerneck 0.100568 -0.0623288 3.05055
upperneck -26.3621 1.44325 1.37267
head -8.1682 0.732771 -0.229514
rclavicle 2.54444e-014 2.32578e-014
rhumerus -29.4004 -1.8352 -87.2198
rradius 48.6366
rwrist -3.88411
rhand -21.2409 -11.0457
rfingers 7.12502
rthumb 5.14178 -40.9633
lclavicle 2.54444e-014 2.32578e-014
lhumerus -22.5387 4.68084 80.1941
lradius 36.6786
lwrist 18.5817
lhand -25.9347 15.6955
lfingers 7.12502
lthumb 0.608785 45.6744
rfemur -59.2055 -2.88696 24.834
rtibia 79.379
rfoot -3.14311 -7.58533
rtoes -15.1702
lfemur -67.3516 8.97296 -23.8175
ltibia 73.0696
lfoot 2.71979 -0.486169
ltoes -22.7161
554
root 23.1132 15.5048 -4.49247 -60.4974 91.0583 -74.5976
lowerback 40.6028 -2.5942 0.538572
upperback 10.3478 -1.80353 -2.48681
thorax -8.1166 -0.197259 -2.28388
lowerneck 0.0963558 -0.0414224 3.07462
upperneck -26.3048 1.45926 1.32468
head -8.14703 0.741734 -0.25031
rclavicle -1.55052e-014 -2.94201e-014
rhumerus -29.3742 -1.9172 -87.1488
rradius 48.3838
rwrist -3.7418
rhand -21.26 -11.0055
rfingers 7.12502
rthumb 5.12328 -40.9236
lclavicle -1.55052e-014 -2.94201e-014
lhumerus -22.5868 4.73238 80.1711
lradius 36.5673
lwrist 18.6065
lhand -25.9772 15.6621
lfingers 7.12502
lthumb 0.567794 45.6411
rfemur -59.3738 -2.91158 24.6642
rtibia 79.0683
rfoot -2.95816 -6.9519
rtoes -14.9324
lfemur -67.1214 9.1935 -23.5398
ltibia 75.1453
lfoot 2.61405 -0.151415
ltoes -22.2959
555
root 22.9972 15.5119 -4.48673 -59.207 91.0647 -73.2571
lowerback 40.5281 -2.61252 0.588938
upperback 10.3297 -1.81018 -2.46738
thorax -8.11481 -0.203126 -2.28681
lowerneck 0.0976313 -0.0201124 3.10972
upperneck -26.2442 1.4723 1.26005
head -8.12549 0.749394 -0.278306
rclavicle -6.75868e-015 -1.03368e-014
rhumerus -29.3542 -2.00061 -87.0825
rradius 48.1419
rwrist -3.63447
rhand -21.2729 -10.9693
rfingers 7.12502
rthumb 5.11089 -40.8877
lclavicle -6.75868e-015 -1.03368e-014
lhumerus -22.6446 4.78306 80.1532
lradius 36.4566
lwrist 18.611
lhand -26.0175 15.6204
lfingers 7.12502
lthumb 0.528847 45.5995
rfemur -59.4961 -2.90154 24.4357
rtibia 78.6969
rfoot -2.7394 -6.22522
rtoes -14.7509
lfemur -66.7911 9.39724 -23.2273
ltibia 77.0913
lfoot 2.58352 -0.0444035
ltoes -21.9369
556
root 22.8818 15.5215 -4.48216 -58.1719 91.0618 -72.1806
lowerback 40.4484 -2.63247 0.647529
upperback 10.3058 -1.81696 -2.4465
thorax -8.11804 -0.209672 -2.29241
lowerneck 0.0951306 -9.84334e-006 3.13509
upperneck -26.1762 1.48319 1.20052
head -8.10082 0.756397 -0.302652
rclavicle 1.15295e-014 -3.77691e-015
rhumerus -29.3409 -2.08453 -87.0214
rradius 47.9176
rwrist -3.57027
rhand -21.282 -10.9436
rfingers 7.12502
rthumb 5.1021 -40.8622
lclavicle 1.15295e-014 -3.77691e-015
lhumerus -22.7105 4.827 80.1416
lradius 36.35
lwrist 18.6065
lhand -26.0494 15.5767
lfingers 7.12502
lthumb 0.498056 45.5558
rfemur -59.5817 -2.85986 24.169
rtibia 78.2636
rfoot -2.46381 -5.44812
rtoes -14.7139
lfemur -66.3553 9.59044 -22.8785
ltibia 78.8937
lfoot 2.63561 -0.150879
ltoes -21.672
557
root 22.7665 15.5334 -4.47888 -57.6684 91.0433 -71.6422
lowerback 40.3665 -2.65082 0.710061
upperback 10.2782 -1.82125 -2.42403
thorax -8.12459 -0.215556 -2.29936
lowerneck 0.0898547 0.01996 3.16027
upperneck -26.1061 1.49311 1.13918
head -8.07494 0.763067 -0.327434
rclavicle -4.77083e-015 -2.06736e-014
rhumerus -29.3314 -2.15697 -86.9674
rradius 47.7136
rwrist -3.55817
rhand -21.2808 -10.9327
rfingers 7.12502
rthumb 5.1032 -40.8513
lclavicle -4.77083e-015 -2.06736e-014
lhumerus -22.7836 4.87353 80.1313
lradius 36.2542
lwrist 18.6166
lhand -26.1046 15.5128
lfingers 7.12502
lthumb 0.444719 45.492
rfemur -59.6543 -2.80398 23.9001
rtibia 77.7825
rfoot -2.10802 -4.68678
rtoes -14.8246
lfemur -65.8213 9.77988 -22.4963
ltibia 80.5499
lfoot 2.78462 -0.435079
ltoes -21.5585
558
root 22.6515 15.5474 -4.47709 -58.0085 91.0044 -71.9532
lowerback 40.2829 -2.66484 0.773895
upperback 10.2501 -1.82021 -2.39906
thorax -8.13086 -0.219334 -2.30648
lowerneck 0.0698844 0.0409812 3.17295
upperneck -26.0297 1.50442 1.0848
head -8.04434 0.771201 -0.347677
rclavicle -2.38542e-015 -1.07344e-014
rhumerus -29.321 -2.21247 -86.9172
rradius 47.5325
rwrist -3.58459
rhand -21.2707 -10.9318
rfingers 7.12502
rthumb 5.11297 -40.8501
lclavicle -2.38542e-015 -1.07344e-014
lhumerus -22.8602 4.93173 80.1225
lradius 36.1739
lwrist 18.6506
lhand -26.1658 15.45
lfingers 7.12502
lthumb 0.385608 45.4294
rfemur -59.7392 -2.75791 23.6704
rtibia 77.2717
rfoot -1.68185 -4.02137
rtoes -15.0028
lfemur -65.1923 9.97056 -22.0857
ltibia 82.0597
lfoot 3.0496 -0.85308
ltoes -21.5016
559
root 22.536 15.5626 -4.47672 -58.7671 90.9487 -72.7014
lowerback 40.1864 -2.67821 0.840768
upperback 10.221 -1.81802 -2.37032
thorax -8.13391 -0.223156 -2.31168
lowerneck 0.0368849 0.0639796 3.17948
upperneck -25.9506 1.51847 1.03376
head -8.01056 0.781176 -0.365818
rclavicle -1.23246e-014 -1.39149e-014
rhumerus -29.3064 -2.24569 -86.873
rradius 47.3766
rwrist -3.6392
rhand -21.2546 -10.9275
rfingers 7.12502
rthumb 5.12856 -40.8454
lclavicle -1.23246e-014 -1.39149e-014
lhumerus -22.9386 5.00171 80.1132
lradius 36.1112
lwrist 18.7147
lhand -26.2288 15.4043
lfingers 7.12502
lthumb 0.324798 45.3838
rfemur -59.8799 -2.75601 23.5195
rtibia 76.7571
rfoot -1.20511 -3.52295
rtoes -15.1345
lfemur -64.4986 10.1545 -21.6558
ltibia 83.4272
lfoot 3.43541 -1.36589
ltoes -21.4515
560
root 22.4198 15.5788 -4.47763 -60.3647 90.886 -74.3118
lowerback 40.0729 -2.68788 0.898841
upperback 10.1908 -1.8159 -2.33952
thorax -8.13234 -0.227602 -2.31016
lowerneck -0.00492596 0.0891129 3.1779
upperneck -25.8743 1.53672 0.989695
head -7.97625 0.793539 -0.380473
rclavicle -3.89618e-014 -3.8763e-014
rhumerus -29.288 -2.25772 -86.8358
rradius 47.2508
rwrist -3.70382
rhand -21.2304 -10.9248
rfingers 7.12502
rthumb 5.15187 -40.8421
lclavicle -3.89618e-014 -3.8763e-014
lhumerus -23.0158 5.0839 80.1022
lradius 36.0602
lwrist 18.7985
lhand -26.2552 15.3809
lfingers 7.12502
lthumb 0.299248 45.3604
rfemur -60.0919 -2.8141 23.4577
rtibia 76.2537
rfoot -0.704659 -3.22758
rtoes -15.1133
lfemur -63.7499 10.3284 -21.2259
ltibia 84.6517
lfoot 3.93957 -1.95147
ltoes -21.3474
561
root 22.3031 15.5961 -4.47988 -63.0845 90.8219 -77.0644
lowerback 39.9481 -2.69454 0.947587
upperback 10.1571 -1.81523 -2.3094
thorax -8.13071 -0.233233 -2.30402
lowerneck -0.0514211 0.116241 3.17352
upperneck -25.8012 1.55928 0.951821
head -7.94227 0.807827 -0.392843
rclavicle 1.19271e-014 3.97569e-016
rhumerus -29.271 -2.25202 -86.8063
rradius 47.1551
rwrist -3.76436
rhand -21.1834 -10.9161
rfingers 7.12502
rthumb 5.19726 -40.8323
lclavicle 1.19271e-014 3.97569e-016
lhumerus -23.0971 5.16383 80.0899
lradius 36.0223
lwrist 18.8995
lhand -26.2286 15.3956
lfingers 7.12502
lthumb 0.325 45.3751
rfemur -60.3645 -2.93346 23.48
rtibia 75.7643
rfoot -0.203518 -3.12656
rtoes -14.9141
lfemur -62.9433 10.4913 -20.8072
ltibia 85.7309
lfoot 4.54538 -2.5925
ltoes -21.0834
562
root 22.1864 15.615 -4.48343 -67.292 90.7684 -81.3204
lowerback 39.8134 -2.69822 0.981633
upperback 10.1205 -1.81811 -2.28244
thorax -8.12903 -0.240853 -2.29227
lowerneck -0.0912926 0.144232 3.17199
upperneck -25.7406 1.58493 0.916331
head -7.91378 0.823108 -0.405228
rclavicle -1.43125e-014 -1.90833e-014
rhumerus -29.2583 -2.23365 -86.7835
rradius 47.0912
rwrist -3.81098
rhand -21.1346 -10.9049
rfingers 7.12502
rthumb 5.2444 -40.82
lclavicle -1.43125e-014 -1.90833e-014
lhumerus -23.1841 5.23284 80.0787
lradius 35.9927
lwrist 19.0107
lhand -26.1611 15.4256
lfingers 7.12502
lthumb 0.390159 45.405
rfemur -60.6721 -3.09944 23.5567
rtibia 75.278
rfoot 0.276987 -3.17331
rtoes -14.6001
lfemur -62.0737 10.6372 -20.4147
ltibia 86.6593
lfoot 5.21199 -3.28941
ltoes -20.7316
563
root 22.0698 15.6358 -4.48824 -73.2003 90.7291 -87.2833
lowerback 39.6713 -2.69992 1.00374
upperback 10.0848 -1.82422 -2.26183
thorax -8.1237 -0.249901 -2.27989
lowerneck -0.125577 0.172743 3.17575
upperneck -25.6888 1.61349 0.885063
head -7.88931 0.838886 -0.417386
rclavicle -1.70955e-014 -2.80286e-014
rhumerus -29.2496 -2.20834 -86.7708
rradius 47.0551
rwrist -3.84255
rhand -21.0855 -10.8871
rfingers 7.12502
rthumb 5.29179 -40.8011
lclavicle -1.70955e-014 -2.80286e-014
lhumerus -23.2732 5.28351 80.0656
lradius 35.9683
lwrist 19.131
lhand -26.0667 15.4519
lfingers 7.12502
lthumb 0.481315 45.4311
rfemur -60.9774 -3.28196 23.6562
rtibia 74.7764
rfoot 0.727781 -3.30243
rtoes -14.1306
lfemur -61.1333 10.7648 -20.0499
ltibia 87.4356
lfoot 5.89802 -4.06984
ltoes -20.5224
